<svg width="48" height="48" viewBox="0 0 48 48" fill="none" xmlns="http://www.w3.org/2000/svg">
<rect width="48" height="48" rx="8" fill="#F3F4F6"/>
<path d="M12 24C12 17.3726 17.3726 12 24 12C30.6274 12 36 17.3726 36 24C36 30.6274 30.6274 36 24 36C17.3726 36 12 30.6274 12 24Z" fill="#9CA3AF"/>
<path d="M18 22C19.1046 22 20 21.1046 20 20C20 18.8954 19.1046 18 18 18C16.8954 18 16 18.8954 16 20C16 21.1046 16.8954 22 18 22Z" fill="#FFFFFF"/>
<path d="M30 22C31.1046 22 32 21.1046 32 20C32 18.8954 31.1046 18 30 18C28.8954 18 28 18.8954 28 20C28 21.1046 28.8954 22 30 22Z" fill="#FFFFFF"/>
<path d="M16 28C16 30 19 32 24 32C29 32 32 30 32 28" stroke="#FFFFFF" stroke-width="2" stroke-linecap="round"/>
</svg>
